<svg width="24" height="24" viewBox="0 0 24 24" fill="none" xmlns="http://www.w3.org/2000/svg">
<g clip-path="url(#clip0_6011_4577)">
<path d="M23.8102 9.26971C23.6807 9.03578 23.4906 8.84094 23.26 8.70554C23.0294 8.57014 22.7667 8.49916 22.4993 8.50001H8.28615C7.80695 8.49999 7.34067 8.6554 6.95731 8.94291C6.57394 9.23043 6.29418 9.63453 6.16 10.0946L3.34675 19.74C3.19864 20.2478 2.88985 20.6938 2.46671 21.0111C2.04357 21.3285 1.52892 21.5 1 21.5H18.8739C19.4029 21.5 19.9177 21.3284 20.3409 21.011C20.7641 20.6936 21.073 20.2475 21.2211 19.7396L23.9218 10.4805C23.9846 10.2814 24.0071 10.0717 23.988 9.86385C23.9688 9.65596 23.9084 9.45397 23.8102 9.26971Z" fill="#73BDBD"/>
<path d="M2.385 19.46L5.2 9.815C5.39611 9.14822 5.80238 8.56264 6.35828 8.14549C6.91419 7.72834 7.58999 7.50193 8.285 7.5H21V7C21 6.46957 20.7893 5.96086 20.4142 5.58579C20.0391 5.21071 19.5304 5 19 5H11.3778C11.2288 5 11.0817 4.96679 10.9472 4.90279C10.8126 4.83878 10.694 4.74559 10.6 4.63L9.61715 3.42145C9.38301 3.13358 9.08766 2.9015 8.75256 2.74211C8.41747 2.58272 8.05107 2.50001 7.68 2.5H2C1.46957 2.5 0.960859 2.71071 0.585786 3.08579C0.210714 3.46086 0 3.96957 0 4.5L0 19.5C0 19.7652 0.105357 20.0196 0.292893 20.2071C0.48043 20.3946 0.734784 20.5 1 20.5C1.31213 20.4991 1.61562 20.3974 1.86521 20.21C2.1148 20.0226 2.29713 19.7595 2.385 19.46Z" fill="#73BDBD"/>
</g>
<defs>
<clipPath id="clip0_6011_4577">
<rect width="24" height="24" fill="white"/>
</clipPath>
</defs>
</svg>
