<svg width="20" height="20" viewBox="0 0 24 24" fill="none" xmlns="http://www.w3.org/2000/svg">
<g clip-path="url(#clip0_8002_1300)">
<path d="M15.9911 2.22317C13.0427 2.16421 10.0016 3.85261 9.16741 7.66231C5.77222 6.50344 2.70667 8.78908 3.02511 12.4386C1.24869 13.1566 0 14.8921 0 16.9319C0 19.6178 2.16229 21.7801 4.84821 21.7801H10.7377C10.7361 20.1478 10.7327 16.8726 10.7327 16.2522L9.35153 16.7527C8.34957 17.1845 7.60952 15.9228 8.4676 15.1372L11.0809 12.5975C11.6778 12.0007 12.3907 12.0691 12.9191 12.5975L15.5324 15.1372C16.3905 15.9228 15.6504 17.1845 14.6484 16.7527L13.2673 16.2522V21.7801H19.1518C21.8377 21.7801 24 19.6178 24 16.9319C24 14.955 22.8266 13.2651 21.1373 12.5088C24.4106 6.12739 20.3003 2.30921 15.9911 2.22317Z" fill="#ffff"/>
<path d="M15.991 2.22262C15.8267 2.21938 15.6464 2.22502 15.482 2.2323C11.7163 8.16708 17.5361 12.508 21.1372 12.508C24.4105 6.12651 20.3001 2.30866 15.991 2.22262Z" fill="#4A9595"/>
</g>
<defs>
<clipPath id="clip0_8002_1300">
<rect width="24" height="24" fill="white"/>
</clipPath>
</defs>
</svg>
